<svg id="gold-medal" xmlns="http://www.w3.org/2000/svg" width="53.63" height="50.069" viewBox="0 0 53.63 50.069">
  <path id="Trazado_176" data-name="Trazado 176" d="M.7,306.358C-.538,307.6-.135,309.1,1.913,309.2l5.833.739c2.021.254,1.618.339,1.859,2.261l.617,5.317c.1,2.053,1.6,2.454,2.842,1.21l4.145-4.146,4.243-4.25a3.608,3.608,0,0,1-1.09-.639l-3.01-7.6-9.19-3.2Z" transform="translate(0 -269.366)" fill="#202060" fill-rule="evenodd"/>
  <path id="Trazado_178" data-name="Trazado 178" d="M307.206,309.913l4.246,4.25,4.142,4.146c1.242,1.244,2.741.843,2.845-1.21l.613-5.317c.241-1.922-.162-2.007,1.862-2.261l5.83-.739c2.051-.1,2.451-1.6,1.212-2.845l-7.506-7.514-10.03,1.017Z" transform="translate(-275.027 -268.946)" fill="#202060" fill-rule="evenodd"/>
  <path id="Trazado_180" data-name="Trazado 180" d="M80.775,17.385l2.793,1.32,3.956.254a3.775,3.775,0,0,1,2.546,1.516l1.862,2.472,3.382,2.069a3.77,3.77,0,0,1,1.554,2.53l.5,3.056,2.039,3.41a3.783,3.783,0,0,1,.2,2.961l-.971,2.946.226,3.966a3.779,3.779,0,0,1-1.19,2.719l-2.222,2.151-1.639,3.621A3.756,3.756,0,0,1,91.5,54.223l-2.967.871-3.126,2.441a3.746,3.746,0,0,1-2.909.559l-3.028-.611-3.9.7a3.742,3.742,0,0,1-2.833-.859l-2.4-1.956-3.779-1.195A3.759,3.759,0,0,1,64.455,52.1l-1.218-2.848-2.793-2.82a3.782,3.782,0,0,1-.9-2.829l.241-3.089-1.166-3.8a3.778,3.778,0,0,1,.507-2.927l1.645-2.622.726-3.908A3.779,3.779,0,0,1,63.3,24.9l2.671-1.558,2.454-3.12a3.756,3.756,0,0,1,2.689-1.241l3.086-.134,3.62-1.619a3.753,3.753,0,0,1,2.955.156Z" transform="translate(-52.382 -16.999)" fill="#f89b4b" fill-rule="evenodd"/>
  <path id="Trazado_181" data-name="Trazado 181" d="M119.7,93.533A15.93,15.93,0,1,0,103.781,77.6,15.921,15.921,0,0,0,119.7,93.533Z" transform="translate(-92.91 -56.994)" fill="#d17323" fill-rule="evenodd"/>
</svg>
