<svg xmlns="http://www.w3.org/2000/svg" width="119.396" height="100.099" viewBox="0 0 119.396 100.099">
  <g id="Group_70" data-name="Group 70" transform="translate(-1440.925 -787.086)">
    <path id="Path_128" data-name="Path 128" d="M1531.132,806.961a9.272,9.272,0,0,1,6.582,2.729h.006a9.317,9.317,0,0,1-.016,13.185l-20.212,20.041-21.743,21.665a9.323,9.323,0,0,1-6.587,2.729c-.156,0-.307-.005-.463-.01a9.027,9.027,0,0,1-.915-.094c-.151-.021-.3-.047-.447-.078a9.312,9.312,0,0,1-4.762-2.547l-19.045-19.045a9.316,9.316,0,1,1,13.175-13.174l12.457,12.462,31.709-31.558,3.685-3.586a9.283,9.283,0,0,1,6.576-2.719m0-19.875h0a28.992,28.992,0,0,0-20.5,8.413l-3.62,3.523-.16.157L1489.14,816.8a29.192,29.192,0,0,0-39.663,42.786l19.044,19.045a29.1,29.1,0,0,0,14.829,7.964c.529.109,1.039.2,1.555.273.913.136,1.845.229,2.771.277l.368.015c.388.013.746.021,1.118.021a29,29,0,0,0,20.641-8.55l21.717-21.64,20.178-20.006a29.193,29.193,0,0,0,.086-41.342l-.009,0a28.981,28.981,0,0,0-20.642-8.557Z" fill="#ff0062"/>
  </g>
</svg>
