<svg xmlns="http://www.w3.org/2000/svg" width="89.058" height="58.148" viewBox="0 0 89.058 58.148">
  <g id="Grupo_160" data-name="Grupo 160" transform="translate(-514.974 -96.016)">
    <path id="Trazado_121" data-name="Trazado 121" d="M678.253,252.782a9.861,9.861,0,1,0-10.7-.063,14.9,14.9,0,0,0-9.6,13.9,3.083,3.083,0,0,0,6.166,0,8.706,8.706,0,1,1,17.412,0,3.083,3.083,0,1,0,6.166,0,14.893,14.893,0,0,0-9.441-13.841m-5.3-12a3.7,3.7,0,1,1-3.7,3.7,3.7,3.7,0,0,1,3.7-3.7" transform="translate(-142.976 -138.597)" fill="#bebebe"/>
    <path id="Trazado_122" data-name="Trazado 122" d="M688.649,262.084a14.91,14.91,0,1,0-16.183-.095,22.522,22.522,0,0,0-14.516,21.022,4.662,4.662,0,0,0,9.323,0,13.164,13.164,0,1,1,26.328,0,4.661,4.661,0,1,0,9.323,0,22.519,22.519,0,0,0-14.275-20.927m-8.017-18.149a5.587,5.587,0,1,1-5.588,5.587,5.587,5.587,0,0,1,5.588-5.587" transform="translate(-120.478 -133.509)" fill="#bebebe"/>
    <path id="Trazado_123" data-name="Trazado 123" d="M678.253,252.782a9.861,9.861,0,1,0-10.7-.063,14.9,14.9,0,0,0-9.6,13.9,3.083,3.083,0,0,0,6.166,0,8.706,8.706,0,1,1,17.412,0,3.083,3.083,0,1,0,6.166,0,14.893,14.893,0,0,0-9.441-13.841m-5.3-12a3.7,3.7,0,1,1-3.7,3.7,3.7,3.7,0,0,1,3.7-3.7" transform="translate(-83.662 -137.301)" fill="#bebebe"/>
  </g>
</svg>
