<svg xmlns="http://www.w3.org/2000/svg" width="49.453" height="49.389" viewBox="0 0 49.453 49.389">
  <g id="dislike-2" transform="translate(0 -0.33)">
    <path id="Trazado_182" data-name="Trazado 182" d="M158.468,28a5.2,5.2,0,0,1-5.194,5.2H143.094l1.553,5.364v2.571a8.6,8.6,0,0,1-8.59,8.59,2.085,2.085,0,0,1-2.083-2.082v-5.7c-.809-1.3-5.467-6.5-10.406-11.8v2.643h-2.9V4.889l8.29-3.108a22.689,22.689,0,0,1,8-1.451h12.893a5.192,5.192,0,0,1,4.08,8.406,5.184,5.184,0,0,1,1.139,7.491,5.245,5.245,0,0,1,1.328,1.32,5.181,5.181,0,0,1-.187,6.171A5.192,5.192,0,0,1,158.468,28Z" transform="translate(-109.015 0)" fill="#ffbb85"/>
    <rect id="Rect치ngulo_136" data-name="Rect치ngulo 136" width="14.553" height="34.157" transform="translate(0 1.466)" fill="#202060"/>
    <rect id="Rect치ngulo_138" data-name="Rect치ngulo 138" width="2.866" height="2.866" transform="translate(5.844 27.438)" fill="#e1e4fb"/>
  </g>
</svg>
