<svg xmlns="http://www.w3.org/2000/svg" width="93.044" height="98.013" viewBox="0 0 93.044 98.013">
  <g id="Group_68" data-name="Group 68" transform="translate(-1016.878 -788.129)">
    <path id="Path_126" data-name="Path 126" d="M1063.879,818.371l22.426,18.239a.04.04,0,0,1,.015.032v2.376c0,12.434-9.648,23.057-22.074,23.507a22.945,22.945,0,0,1-23.766-22.905v-2.764a.042.042,0,0,1,.016-.033l23.383-18.452m.222-30.242-47.207,37.254a.042.042,0,0,0-.016.032V838.66c0,26.109,21.367,48,47.47,47.473a46.522,46.522,0,0,0,45.574-46.513V825.415a.041.041,0,0,0-.015-.032L1064.1,788.129Z" fill="#ffa400"/>
  </g>
</svg>
