<svg xmlns="http://www.w3.org/2000/svg" width="438.848" height="376.013" viewBox="0 0 438.848 376.013">
  <g id="Group_97" data-name="Group 97" transform="translate(-255.152 -355.458)">
    <g id="Group_92" data-name="Group 92">
      <g id="Group_87" data-name="Group 87">
        <g id="Group_73" data-name="Group 73">
          <path id="Path_130" data-name="Path 130" d="M429.831,719.133h1.6v9.823h6.074v1.4h-7.677Z" fill="#202060"/>
          <path id="Path_131" data-name="Path 131" d="M445.28,729.733a5.5,5.5,0,0,1-2.139-2.059,5.916,5.916,0,0,1,0-5.865,5.51,5.51,0,0,1,2.139-2.06,6.628,6.628,0,0,1,6.106,0,5.472,5.472,0,0,1,2.132,2.052,6.008,6.008,0,0,1,0,5.882,5.475,5.475,0,0,1-2.132,2.05,6.62,6.62,0,0,1-6.106,0Zm5.281-1.242a4.1,4.1,0,0,0,1.554-1.546,4.551,4.551,0,0,0,0-4.407,4.114,4.114,0,0,0-1.554-1.547,4.406,4.406,0,0,0-2.22-.56,4.5,4.5,0,0,0-2.236.56,4.079,4.079,0,0,0-1.57,1.547,4.551,4.551,0,0,0,0,4.407,4.064,4.064,0,0,0,1.57,1.546,4.5,4.5,0,0,0,2.236.562A4.408,4.408,0,0,0,450.561,728.491Z" fill="#202060"/>
          <path id="Path_132" data-name="Path 132" d="M479.72,730.351l-.016-8.173-4.055,6.81h-.737l-4.055-6.762v8.125h-1.538V719.133h1.314l4.679,7.885,4.616-7.885h1.314l.016,11.218Z" fill="#202060"/>
          <path id="Path_133" data-name="Path 133" d="M496.9,728.956v1.4h-8.141V719.133h7.917v1.393h-6.314v3.447h5.625v1.362h-5.625v3.621Z" fill="#202060"/>
          <path id="Path_134" data-name="Path 134" d="M503.2,730.054a3.558,3.558,0,0,1-1.394-1.194l.929-1.089a2.769,2.769,0,0,0,2.34,1.33,1.774,1.774,0,0,0,1.434-.578,2.563,2.563,0,0,0,.489-1.7v-6.3h-4.055v-1.393h5.642v7.612a3.923,3.923,0,0,1-.89,2.8,3.444,3.444,0,0,1-2.62.938A4.2,4.2,0,0,1,503.2,730.054Z" fill="#202060"/>
          <path id="Path_135" data-name="Path 135" d="M517.989,729.733a5.5,5.5,0,0,1-2.139-2.059,5.916,5.916,0,0,1,0-5.865,5.51,5.51,0,0,1,2.139-2.06,6.628,6.628,0,0,1,6.106,0,5.472,5.472,0,0,1,2.132,2.052,6.008,6.008,0,0,1,0,5.882,5.475,5.475,0,0,1-2.132,2.05,6.62,6.62,0,0,1-6.106,0Zm5.281-1.242a4.1,4.1,0,0,0,1.554-1.546,4.551,4.551,0,0,0,0-4.407,4.114,4.114,0,0,0-1.554-1.547,4.407,4.407,0,0,0-2.22-.56,4.5,4.5,0,0,0-2.236.56,4.079,4.079,0,0,0-1.57,1.547,4.551,4.551,0,0,0,0,4.407,4.063,4.063,0,0,0,1.57,1.546,4.5,4.5,0,0,0,2.236.562A4.408,4.408,0,0,0,523.27,728.491Z" fill="#202060"/>
          <path id="Path_136" data-name="Path 136" d="M541.083,730.351l-2.42-3.446c-.3.022-.535.033-.705.033h-2.773v3.413h-1.6V719.133h4.375a5.192,5.192,0,0,1,3.429,1.041,3.532,3.532,0,0,1,1.25,2.869,3.752,3.752,0,0,1-.641,2.211,3.621,3.621,0,0,1-1.827,1.331l2.661,3.766Zm-.85-5.433a2.287,2.287,0,0,0,.8-1.875,2.259,2.259,0,0,0-.8-1.867,3.614,3.614,0,0,0-2.323-.65h-2.725v5.049h2.725A3.585,3.585,0,0,0,540.233,724.918Z" fill="#202060"/>
          <path id="Path_137" data-name="Path 137" d="M565.618,720.174a3.916,3.916,0,0,1,0,5.737,5.193,5.193,0,0,1-3.43,1.042h-2.772v3.4h-1.6V719.133h4.375A5.192,5.192,0,0,1,565.618,720.174Zm-1.154,4.736a2.574,2.574,0,0,0,0-3.734,3.614,3.614,0,0,0-2.323-.65h-2.725v5.033h2.725A3.614,3.614,0,0,0,564.464,724.91Z" fill="#202060"/>
          <path id="Path_138" data-name="Path 138" d="M579.945,727.546h-5.962l-1.233,2.8H571.1l5.08-11.218h1.587l5.1,11.218h-1.683Zm-.561-1.282-2.42-5.5-2.42,5.5Z" fill="#202060"/>
          <path id="Path_139" data-name="Path 139" d="M596.163,730.351l-2.42-3.446q-.449.033-.7.033h-2.772v3.413h-1.6V719.133h4.375a5.2,5.2,0,0,1,3.43,1.041,3.535,3.535,0,0,1,1.25,2.869,3.752,3.752,0,0,1-.641,2.211,3.626,3.626,0,0,1-1.827,1.331l2.66,3.766Zm-.849-5.433a2.29,2.29,0,0,0,.8-1.875,2.261,2.261,0,0,0-.8-1.867,3.615,3.615,0,0,0-2.324-.65h-2.724v5.049h2.724A3.586,3.586,0,0,0,595.314,724.918Z" fill="#202060"/>
          <path id="Path_140" data-name="Path 140" d="M611.6,727.546h-5.962l-1.234,2.8h-1.65l5.08-11.218h1.587l5.1,11.218H612.83Zm-.561-1.282-2.42-5.5-2.42,5.5Z" fill="#202060"/>
          <path id="Path_141" data-name="Path 141" d="M630.987,720.526h-3.846v-1.393h9.279v1.393h-3.846v9.825h-1.587Z" fill="#202060"/>
          <path id="Path_142" data-name="Path 142" d="M642.3,719.133h1.6v11.218h-1.6Z" fill="#202060"/>
        </g>
        <g id="Group_86" data-name="Group 86">
          <g id="Group_74" data-name="Group 74">
            <path id="Path_143" data-name="Path 143" d="M338.584,663.176a20.96,20.96,0,0,0-10.766-2.615,39.223,39.223,0,0,0-15.358,3.192,5.006,5.006,0,0,0-3.261,4.818,4.858,4.858,0,0,0,1.438,3.513,4.763,4.763,0,0,0,3.431,1.441,6.364,6.364,0,0,0,1.526-.222l.124-.036a46.418,46.418,0,0,1,5.358-1.474,27.337,27.337,0,0,1,5.384-.475c3.448,0,5.959.681,7.463,2.022,1.284,1.147,2.006,3.07,2.153,5.724h-8.513c-6.747,0-11.994,1.373-15.6,4.082a13.594,13.594,0,0,0-5.655,11.4,14.026,14.026,0,0,0,2.138,7.677,13.809,13.809,0,0,0,5.76,5.086,17.577,17.577,0,0,0,7.666,1.7,23.471,23.471,0,0,0,14.407-4.521,5.388,5.388,0,0,0,1.43,2.487,5.451,5.451,0,0,0,3.939,1.61,5.6,5.6,0,0,0,3.957-1.587,5.372,5.372,0,0,0,1.676-3.962V679.011a19.706,19.706,0,0,0-2.1-8.972A16.735,16.735,0,0,0,338.584,663.176Zm-13.821,35.579c-2.733,0-4.725-.493-5.763-1.426a4.6,4.6,0,0,1-1.505-3.635c0-3.3,3.73-4.976,11.087-4.976H336.1v4.732a18.687,18.687,0,0,1-4.93,3.678A13.7,13.7,0,0,1,324.763,698.755Z" fill="#202060"/>
          </g>
          <g id="Group_75" data-name="Group 75">
            <path id="Path_144" data-name="Path 144" d="M378.4,697.991a6.322,6.322,0,0,0-1.356.127c-.267.06-.52.12-.839.2a10.074,10.074,0,0,1-2.9.437,6.272,6.272,0,0,1-3.094-.666c-.335-.19-.694-1-.694-2.7v-23.9h7.862a4.9,4.9,0,0,0,3.626-1.509,5.019,5.019,0,0,0-3.626-8.57h-7.862v-5.06a3.439,3.439,0,0,0-.921-2.357,3.209,3.209,0,0,0-2.421-1.07,3.764,3.764,0,0,0-2.651,1.256l-11.482,11.229a3.451,3.451,0,0,0-1.346,2.74,3.324,3.324,0,0,0,3.342,3.341h4.3v24.583c0,5.9,2.45,12.932,14.121,12.932a18.473,18.473,0,0,0,7.845-1.723,4.878,4.878,0,0,0,2.881-4.5,4.62,4.62,0,0,0-1.47-3.416A4.741,4.741,0,0,0,378.4,697.991Z" fill="#202060"/>
          </g>
          <g id="Group_76" data-name="Group 76">
            <path id="Path_145" data-name="Path 145" d="M393.766,660.985a5.373,5.373,0,0,0-3.961,1.675,5.6,5.6,0,0,0-1.587,3.959V703.03a5.5,5.5,0,0,0,5.548,5.549,5.606,5.606,0,0,0,3.958-1.587,5.375,5.375,0,0,0,1.675-3.962V666.619a5.5,5.5,0,0,0-5.633-5.634Z" fill="#202060"/>
          </g>
          <g id="Group_77" data-name="Group 77">
            <path id="Path_146" data-name="Path 146" d="M394.106,643.586h-.51a6.074,6.074,0,0,0-6.057,6.057v.34a5.858,5.858,0,0,0,1.779,4.278h0a5.858,5.858,0,0,0,4.278,1.78h.51a6.076,6.076,0,0,0,6.057-6.058v-.34a6.074,6.074,0,0,0-6.057-6.057Z" fill="#202060"/>
          </g>
          <g id="Group_78" data-name="Group 78">
            <path id="Path_147" data-name="Path 147" d="M444.144,663.459a21.7,21.7,0,0,0-10.826-2.9,20.688,20.688,0,0,0-12.983,4.471,5.366,5.366,0,0,0-1.478-2.46,5.6,5.6,0,0,0-3.957-1.587,5.5,5.5,0,0,0-5.549,5.549v55.933a5.6,5.6,0,0,0,1.587,3.959A5.378,5.378,0,0,0,414.9,728.1a5.5,5.5,0,0,0,5.633-5.633V704.685A20.664,20.664,0,0,0,433.318,709a21.7,21.7,0,0,0,10.826-2.9,22.088,22.088,0,0,0,8.288-8.456,27.815,27.815,0,0,0,0-25.734A22.1,22.1,0,0,0,444.144,663.459Zm-11.93,7.774a11.588,11.588,0,0,1,8.852,3.456c2.215,2.315,3.339,5.711,3.339,10.093s-1.124,7.779-3.339,10.093h0a11.584,11.584,0,0,1-8.852,3.456,14.392,14.392,0,0,1-6.561-1.554,19.242,19.242,0,0,1-5.12-3.769V676.557a19.3,19.3,0,0,1,5.12-3.77A14.407,14.407,0,0,1,432.214,671.233Z" fill="#202060"/>
          </g>
          <g id="Group_79" data-name="Group 79">
            <path id="Path_148" data-name="Path 148" d="M490.029,662.193a5.31,5.31,0,0,0-3.919-1.632h-.424c-4.222,0-8.131,1.734-11.664,5.166a5.654,5.654,0,0,0-5.566-4.742,5.373,5.373,0,0,0-3.961,1.675,5.6,5.6,0,0,0-1.587,3.959V703.03a5.5,5.5,0,0,0,5.548,5.549,5.606,5.606,0,0,0,3.958-1.587,5.375,5.375,0,0,0,1.675-3.962V677.76a15.445,15.445,0,0,1,4.834-4.515,12.831,12.831,0,0,1,6.593-1.757h.425a5.666,5.666,0,0,0,3.974-1.477,5.17,5.17,0,0,0,1.659-3.9A5.465,5.465,0,0,0,490.029,662.193Z" fill="#202060"/>
          </g>
          <g id="Group_80" data-name="Group 80">
            <path id="Path_149" data-name="Path 149" d="M533.911,687.593a5.461,5.461,0,0,0,1.544-3.915,25.858,25.858,0,0,0-2.551-11.409,20.735,20.735,0,0,0-7.584-8.508,21.531,21.531,0,0,0-11.795-3.2A21.288,21.288,0,0,0,501.259,664a20.686,20.686,0,0,0-7.4,8.972,29.491,29.491,0,0,0-2.349,11.806c0,7.567,2.123,13.558,6.311,17.807h0c4.193,4.257,10.048,6.414,17.4,6.414a28.195,28.195,0,0,0,15.717-3.966c2.539-1.464,3.072-3.331,3.072-4.638a4.826,4.826,0,0,0-1.58-3.651,5.17,5.17,0,0,0-3.544-1.388,5.1,5.1,0,0,0-2.3.522,24.266,24.266,0,0,1-4.872,1.823,23.9,23.9,0,0,1-5.812.626c-4.015,0-7.141-.967-9.294-2.876a11.365,11.365,0,0,1-3.519-6.228h26.732A5.444,5.444,0,0,0,533.911,687.593Zm-30.924-8.105a11.064,11.064,0,0,1,1.622-4.272,9.622,9.622,0,0,1,3.964-3.51,11.27,11.27,0,0,1,9.9,0,9.912,9.912,0,0,1,4.018,3.526,10.875,10.875,0,0,1,1.652,4.256Z" fill="#202060"/>
          </g>
          <g id="Group_81" data-name="Group 81">
            <path id="Path_150" data-name="Path 150" d="M564.62,671.233a14.948,14.948,0,0,1,4.439.555,30.787,30.787,0,0,1,4.493,1.95,4.944,4.944,0,0,0,6.219-.9,5.1,5.1,0,0,0-1.067-7.934,31.19,31.19,0,0,0-6.425-3.1,25.333,25.333,0,0,0-8.338-1.243,25.746,25.746,0,0,0-12.092,2.914,22.7,22.7,0,0,0-8.949,8.44,26.383,26.383,0,0,0,0,25.733,22.7,22.7,0,0,0,8.949,8.442A25.745,25.745,0,0,0,563.941,709a25.341,25.341,0,0,0,8.338-1.243,31.2,31.2,0,0,0,6.439-3.11,5.1,5.1,0,0,0,1.051-7.927,4.72,4.72,0,0,0-3.521-1.618,5.536,5.536,0,0,0-2.66.7,30.746,30.746,0,0,1-4.528,1.969,14.961,14.961,0,0,1-4.44.555c-4.427,0-7.773-1.207-10.229-3.69s-3.659-5.711-3.659-9.859,1.2-7.373,3.659-9.86S560.193,671.233,564.62,671.233Z" fill="#202060"/>
          </g>
          <g id="Group_82" data-name="Group 82">
            <path id="Path_151" data-name="Path 151" d="M592.967,660.985a5.376,5.376,0,0,0-3.961,1.675,5.6,5.6,0,0,0-1.587,3.959V703.03a5.5,5.5,0,0,0,5.548,5.549,5.6,5.6,0,0,0,3.958-1.587,5.376,5.376,0,0,0,1.676-3.962V666.619a5.5,5.5,0,0,0-5.634-5.634Z" fill="#202060"/>
          </g>
          <g id="Group_83" data-name="Group 83">
            <path id="Path_152" data-name="Path 152" d="M593.307,643.586H592.8a6.074,6.074,0,0,0-6.058,6.057v.34a5.862,5.862,0,0,0,1.779,4.278h0a5.86,5.86,0,0,0,4.279,1.78h.509a6.076,6.076,0,0,0,6.058-6.058v-.34a6.076,6.076,0,0,0-6.058-6.057Z" fill="#202060"/>
          </g>
          <g id="Group_84" data-name="Group 84">
            <path id="Path_153" data-name="Path 153" d="M641.607,663.588a26.385,26.385,0,0,0-24.542,0,20.822,20.822,0,0,0-8.275,8.64,28.9,28.9,0,0,0,0,25.107,20.818,20.818,0,0,0,8.275,8.641h0a26.386,26.386,0,0,0,24.542,0,21.107,21.107,0,0,0,8.313-8.63,28.52,28.52,0,0,0,0-25.128A21.106,21.106,0,0,0,641.607,663.588Zm-6.347,33.487a13.069,13.069,0,0,1-11.848,0,10.9,10.9,0,0,1-4.509-4.423,15.68,15.68,0,0,1-1.8-7.954,15.492,15.492,0,0,1,1.8-7.868,10.643,10.643,0,0,1,4.493-4.373,13.4,13.4,0,0,1,5.983-1.392,13.232,13.232,0,0,1,5.9,1.391,10.907,10.907,0,0,1,4.543,4.386,15.211,15.211,0,0,1,1.835,7.856,15.394,15.394,0,0,1-1.834,7.94,11.167,11.167,0,0,1-4.559,4.437Z" fill="#202060"/>
          </g>
          <g id="Group_85" data-name="Group 85">
            <path id="Path_154" data-name="Path 154" d="M691.336,686.544a15.257,15.257,0,0,0-6.074-4.348,73.243,73.243,0,0,0-8.407-2.583,32.422,32.422,0,0,1-6.982-2.149,2.221,2.221,0,0,1-1.421-2.188,3.186,3.186,0,0,1,1.791-2.83,11.692,11.692,0,0,1,6.241-1.382,31.234,31.234,0,0,1,9.253,1.475,6.288,6.288,0,0,0,1.526.222,4.966,4.966,0,0,0,3.669-1.552,5.08,5.08,0,0,0,.518-6.5,4.874,4.874,0,0,0-2.712-1.941,37.312,37.312,0,0,0-12.848-2.208c-5.725,0-10.233,1.4-13.4,4.16A13.947,13.947,0,0,0,657.61,675.7a11.524,11.524,0,0,0,2.778,7.99,16.316,16.316,0,0,0,6.259,4.315,65.28,65.28,0,0,0,8.47,2.525,43.129,43.129,0,0,1,6.784,2.182c1.172.552,1.172,1.108,1.172,1.406,0,1.176,0,4.3-7.693,4.3a23.636,23.636,0,0,1-5.692-.628,32.508,32.508,0,0,1-5.15-1.77,5.478,5.478,0,0,0-2.228-.488,4.822,4.822,0,0,0-3.651,1.578,5.169,5.169,0,0,0-1.389,3.546,4.964,4.964,0,0,0,2.176,4.214l.164.1A33.421,33.421,0,0,0,675.89,709c5.6,0,10.037-1.334,13.2-3.964A12.919,12.919,0,0,0,694,694.712,12.194,12.194,0,0,0,691.336,686.544Z" fill="#202060"/>
          </g>
        </g>
      </g>
      <g id="Group_91" data-name="Group 91">
        <g id="Group_88" data-name="Group 88">
          <path id="Path_155" data-name="Path 155" d="M267.1,683.94a11.871,11.871,0,1,0,11.872-11.872h-1.061a5.971,5.971,0,1,0,0-11.943h1.076a23.834,23.834,0,1,1-11.892,44.485Z" fill="#ff0062"/>
        </g>
        <g id="Group_89" data-name="Group 89">
          <path id="Path_156" data-name="Path 156" d="M261.937,660.127a6.786,6.786,0,0,0-6.785,6.786v17.045a23.83,23.83,0,0,0,11.941,20.652V672.068h10.664a5.972,5.972,0,1,0,.152-11.943Z" fill="#ffa400"/>
        </g>
        <g id="Group_90" data-name="Group 90">
          <path id="Path_157" data-name="Path 157" d="M256.9,729.721a5.95,5.95,0,0,1-1.751-4.221V683.958a23.83,23.83,0,0,0,11.941,20.652l0,20.89a5.969,5.969,0,0,1-10.192,4.221Z" fill="#6852e6"/>
        </g>
      </g>
    </g>
    <g id="Group_96" data-name="Group 96">
      <g id="Group_93" data-name="Group 93">
        <path id="Path_158" data-name="Path 158" d="M483.643,501.679a53.821,53.821,0,1,0-76.12,0l3.4,3.4a27.073,27.073,0,1,0-38.287,38.288l-3.448-3.448A108.058,108.058,0,1,1,549.922,435.432Z" fill="#ff0062"/>
      </g>
      <g id="Group_94" data-name="Group 94">
        <path id="Path_159" data-name="Path 159" d="M423.846,594.566a30.763,30.763,0,0,0,43.5,0l54.646-54.645a108.038,108.038,0,0,0,27.927-104.486L445.6,539.755l-34.188-34.188a27.078,27.078,0,1,0-38.776,37.8Z" fill="#ffa400"/>
      </g>
      <g id="Group_95" data-name="Group 95">
        <path id="Path_160" data-name="Path 160" d="M663.093,387.6a26.981,26.981,0,0,1-7.921,19.144L521.995,539.918a108.038,108.038,0,0,0,27.927-104.486l66.962-66.979A27.065,27.065,0,0,1,663.093,387.6Z" fill="#6852e6"/>
      </g>
    </g>
  </g>
</svg>
