<svg xmlns="http://www.w3.org/2000/svg" width="88.381" height="104.271" viewBox="0 0 88.381 104.271">
  <g id="Group_71" data-name="Group 71" transform="translate(-1591.052 -785)">
    <path id="Path_129" data-name="Path 129" d="M1651.38,838.985a29.3,29.3,0,1,0-31.8-.186,44.257,44.257,0,0,0-28.525,41.312,9.161,9.161,0,0,0,18.321,0,25.87,25.87,0,1,1,51.74,0,9.16,9.16,0,1,0,18.32,0A44.253,44.253,0,0,0,1651.38,838.985Zm-15.757-35.665a10.98,10.98,0,1,1-10.98,10.981A10.981,10.981,0,0,1,1635.623,803.32Z" fill="#ffa400"/>
  </g>
</svg>
