<svg id="verification-symbol" xmlns="http://www.w3.org/2000/svg" width="46.102" height="46.101" viewBox="0 0 46.102 46.101">
  <g id="Grupo_122" data-name="Grupo 122">
    <path id="Trazado_165" data-name="Trazado 165" d="M42.686,13.127A11.348,11.348,0,0,0,39.35,6.751a11.348,11.348,0,0,0-6.374-3.335A7.268,7.268,0,0,1,29.918,2.15,11.353,11.353,0,0,0,23.051,0a11.353,11.353,0,0,0-6.867,2.15,7.275,7.275,0,0,1-3.057,1.266A11.349,11.349,0,0,0,6.752,6.751a11.347,11.347,0,0,0-3.336,6.376A7.261,7.261,0,0,1,2.15,16.184,11.349,11.349,0,0,0,0,23.051a11.349,11.349,0,0,0,2.15,6.867,7.257,7.257,0,0,1,1.266,3.056A11.347,11.347,0,0,0,6.752,39.35a11.347,11.347,0,0,0,6.374,3.335,7.274,7.274,0,0,1,3.057,1.266,11.351,11.351,0,0,0,6.867,2.15,11.352,11.352,0,0,0,6.867-2.15,7.274,7.274,0,0,1,3.057-1.266,12.043,12.043,0,0,0,9.71-9.711,7.261,7.261,0,0,1,1.266-3.056,11.348,11.348,0,0,0,2.15-6.867,11.349,11.349,0,0,0-2.15-6.867A7.254,7.254,0,0,1,42.686,13.127ZM37.743,15.5,21.178,32.067l-2.65,2.65a1.874,1.874,0,0,1-2.65,0l-2.65-2.65L8.358,27.2a1.874,1.874,0,0,1,0-2.65l2.65-2.65a1.874,1.874,0,0,1,2.65,0L17.2,25.442,32.441,10.2a1.874,1.874,0,0,1,2.65,0l2.65,2.65A1.873,1.873,0,0,1,37.743,15.5Z" fill="#286ff7"/>
  </g>
</svg>
